<?xml version="1.0" encoding="utf-8"?>
<!-- Generator: Adobe Illustrator 24.0.0, SVG Export Plug-In . SVG Version: 6.00 Build 0)  -->
<svg version="1.1" xmlns="http://www.w3.org/2000/svg" xmlns:xlink="http://www.w3.org/1999/xlink" x="0px" y="0px"
	 viewBox="0 0 2340 1560" style="enable-background:new 0 0 2340 1560;" xml:space="preserve">
<style type="text/css">
	.st0{fill:#E4FFC5;}
	.st1{fill-rule:evenodd;clip-rule:evenodd;fill:#283890;}
	.st2{fill-rule:evenodd;clip-rule:evenodd;fill:#F0A96B;}
	.st3{fill-rule:evenodd;clip-rule:evenodd;fill:#CE7942;}
	.st4{fill-rule:evenodd;clip-rule:evenodd;fill:#211B19;}
	.st5{fill-rule:evenodd;clip-rule:evenodd;fill:#B0EBFF;}
	.st6{fill-rule:evenodd;clip-rule:evenodd;fill:#67AB00;}
	.st7{fill-rule:evenodd;clip-rule:evenodd;fill:#FFBB1C;}
	.st8{fill-rule:evenodd;clip-rule:evenodd;fill:#7ABD15;}
	.st9{fill-rule:evenodd;clip-rule:evenodd;fill:#FA6A50;}
	.st10{fill-rule:evenodd;clip-rule:evenodd;fill:#E6AA1E;}
	.st11{fill-rule:evenodd;clip-rule:evenodd;fill:#FFD08E;}
	.st12{fill-rule:evenodd;clip-rule:evenodd;fill:#D39653;}
	.st13{fill-rule:evenodd;clip-rule:evenodd;fill:#E30133;}
	.st14{fill-rule:evenodd;clip-rule:evenodd;fill:#FABDC4;}
	.st15{fill-rule:evenodd;clip-rule:evenodd;fill:#F0BD46;}
	.st16{fill-rule:evenodd;clip-rule:evenodd;fill:#D1002D;}
	.st17{fill-rule:evenodd;clip-rule:evenodd;fill:#B6602F;}
	.st18{fill-rule:evenodd;clip-rule:evenodd;fill:#8A3A15;}
	.st19{fill-rule:evenodd;clip-rule:evenodd;fill:#2A2446;}
	.st20{fill-rule:evenodd;clip-rule:evenodd;fill:#545A7E;}
	.st21{fill-rule:evenodd;clip-rule:evenodd;fill:#463C73;}
	.st22{fill-rule:evenodd;clip-rule:evenodd;fill:#008F74;}
	.st23{fill-rule:evenodd;clip-rule:evenodd;fill:#FDAF99;}
	.st24{fill-rule:evenodd;clip-rule:evenodd;fill:#E08C68;}
	.st25{fill-rule:evenodd;clip-rule:evenodd;fill:#FF7481;}
	.st26{fill-rule:evenodd;clip-rule:evenodd;fill:#2F2724;}
	.st27{fill-rule:evenodd;clip-rule:evenodd;fill:#E05109;}
	.st28{fill-rule:evenodd;clip-rule:evenodd;fill:#702D0E;}
	.st29{fill-rule:evenodd;clip-rule:evenodd;fill:#4D1800;}
	.st30{fill-rule:evenodd;clip-rule:evenodd;fill:#00A822;}
	.st31{fill-rule:evenodd;clip-rule:evenodd;fill:#F29900;}
	.st32{fill-rule:evenodd;clip-rule:evenodd;fill:#C37698;}
	.st33{fill-rule:evenodd;clip-rule:evenodd;fill:#F4C2A7;}
	.st34{fill-rule:evenodd;clip-rule:evenodd;fill:#A0C6D3;}
	.st35{fill-rule:evenodd;clip-rule:evenodd;fill:#3B4F00;}
	.st36{fill-rule:evenodd;clip-rule:evenodd;fill:#C67945;}
	.st37{fill-rule:evenodd;clip-rule:evenodd;fill:#FF2B67;}
	.st38{fill-rule:evenodd;clip-rule:evenodd;fill:#F4C251;}
	.st39{fill-rule:evenodd;clip-rule:evenodd;fill:#39D2F0;}
	.st40{fill-rule:evenodd;clip-rule:evenodd;fill:#701359;}
	.st41{fill-rule:evenodd;clip-rule:evenodd;fill:#A3448B;}
	.st42{fill-rule:evenodd;clip-rule:evenodd;fill:#687CED;}
	.st43{fill-rule:evenodd;clip-rule:evenodd;fill:#DCD2C8;}
	.st44{fill-rule:evenodd;clip-rule:evenodd;fill:#CF9661;}
	.st45{fill-rule:evenodd;clip-rule:evenodd;fill:#AD7345;}
	.st46{fill-rule:evenodd;clip-rule:evenodd;fill:#301001;}
	.st47{fill-rule:evenodd;clip-rule:evenodd;fill:#FEF0E3;}
	.st48{fill:#FFBB1C;}
	.st49{fill-rule:evenodd;clip-rule:evenodd;fill:#FFFFFF;}
	.st50{fill-rule:evenodd;clip-rule:evenodd;fill:#120F0D;}
	.st51{fill:#275747;}
	.st52{fill-rule:evenodd;clip-rule:evenodd;fill:#CF3E23;}
	.st53{fill-rule:evenodd;clip-rule:evenodd;fill:#BD3718;}
</style>
<g id="Layer_1">
	<rect class="st0" width="2340" height="1560"/>
</g>
<g id="Layer_2">
	<g id="_x31_0">
		<path class="st1" d="M242.76,321.41c125.24,0,226.77,101.53,226.77,226.78c0,125.24-101.53,226.77-226.77,226.77
			c-125.25,0-226.78-101.53-226.78-226.77C15.98,422.94,117.51,321.41,242.76,321.41L242.76,321.41z"/>
		<g>
			<g>
				<path class="st2" d="M202.32,577.71h80.83c0,40.22-13.49,85.37,33.87,101.72c37.36,12.89,70.27,8.96,94,20.78
					c-41.5,45.91-101.52,74.75-168.27,74.75c-66.77,0-126.78-28.85-168.28-74.76c23.73-11.81,56.64-7.88,93.98-20.77
					C215.81,663.08,202.32,617.92,202.32,577.71L202.32,577.71z"/>
				<g>
					<path class="st2" d="M168.08,508.72c0,0-6.92-25.26-28-21.22c-21.09,4.04-13.51,52.21,2.63,64.34
						c16.14,12.13,28.33-3.03,28.33-3.03L168.08,508.72L168.08,508.72z"/>
					<path class="st2" d="M317.39,508.72c0,0,6.92-25.26,28-21.22c21.09,4.04,13.51,52.21-2.63,64.34
						c-16.14,12.13-28.33-3.03-28.33-3.03L317.39,508.72L317.39,508.72z"/>
				</g>
				<path class="st3" d="M282.43,638.16c-11.99,6.95-25.46,10.85-39.69,10.85c-14.23,0-27.69-3.9-39.69-10.85
					c2.72-18.51-0.73-40.11-0.73-60.45h80.83C283.16,598.05,279.71,619.65,282.43,638.16L282.43,638.16z"/>
				<path class="st2" d="M242.74,414.01c50.23,0,90.95,48.56,90.95,108.46c0,59.9-40.71,108.46-90.95,108.46
					c-50.23,0-90.94-48.56-90.94-108.46C151.8,462.57,192.51,414.01,242.74,414.01z"/>
			</g>
			<path class="st4" d="M147.37,487.25c0,0-1.59,23.58,1.03,42.54c2.63,18.95,8.59,28.91,8.59,28.91s-1.22-40.75,2.73-57.61
				c3.95-16.85,17.38-39.23,17.38-39.23s-5.27,17.38-1.32,21.33c3.95,3.96,10.27-23.69,10.27-23.69s5,19.74,10,13.43
				c5-6.32,4.48-26.86,4.48-26.86s16.06-2.9,25.28,7.37c9.22,10.27,13.69,15.27,25.01,16.06c11.32,0.79,18.44-1.84,18.44-1.84
				s5.05,11.6,15.19,14.7c10.14,3.09,19.3-1.01,19.3-1.01s-0.4,10.67,6.58,15.41c6.98,4.74,17.25,2.24,17.25,2.24
				s3.81,16.06,3.55,27.91c-0.26,11.85,0.6,17.99,0.6,17.99s4.14-9.56,4.93-25.89c0.78-16.32-1.82-31-1.82-31s1.76-0.67,5.38-0.93
				c3.61-0.26,5.65,0.52,5.65,0.52s-2.76-18.69-1.71-27.38c1.05-8.68-2.37-19.48-9.22-27.12c-6.85-7.64-21.86-12.64-21.86-12.64
				s0.53-5.2-6.85-12.77c-7.37-7.57-23.43-7.5-23.43-7.5s-27.12-10.79-43.71-4.48c-16.59,6.32-18.96,12.11-18.96,12.11
				s-7.11-4.74-14.48-3.16c-4.33,0.93-7.39,5.58-9.17,9.26c-1.21-6.23-3.25-14.08-5.87-14.32c-4.34-0.4,1.05,14.62,1.05,14.62
				s-13.82-9.75-15.67-6.72c-0.84,1.38,3,4.84,7.42,8.18c-4.37-0.24-9.62,0.5-15.02,3.59c-13.56,7.77-11.72,18.3-11.72,18.3
				s-13.17,1.05-18.43,15.01c-5.27,13.95,0.04,35.38,0.04,35.38s2.04-0.72,4.82-0.86C145.9,486.96,147.37,487.25,147.37,487.25
				L147.37,487.25z"/>
			<g>
				<path class="st5" d="M142.85,686.16h59.46c9.56,11.73,24.12,19.22,40.43,19.22c16.31,0,30.87-7.49,40.43-19.22h59.46
					c26.76,5.18,50.26,5.01,68.4,14.04c-41.5,45.91-101.52,74.76-168.27,74.76c-66.77,0-126.78-28.85-168.29-74.77
					C92.61,691.17,116.1,691.33,142.85,686.16L142.85,686.16z"/>
				<path class="st6" d="M260.79,663.98v110.27c59.49-4.68,112.51-32.32,150.24-74.05c-23.73-11.81-56.64-7.88-93.98-20.77
					c-12.35-4.26-20.55-10.49-25.95-18.06L260.79,663.98L260.79,663.98z M224.72,663.98v110.27
					c-59.49-4.68-112.52-32.32-150.25-74.05c23.73-11.81,56.64-7.88,93.98-20.77c12.34-4.26,20.55-10.49,25.94-18.06L224.72,663.98z
					"/>
				<path class="st7" d="M260.79,689.41v4.66h25.42v29.9h-25.42v4.66h25.42v29.9h-25.42v4.66h25.42v7.59
					c1.56-0.31,3.11-0.62,4.66-0.96v-6.63H315c4.27-1.44,8.47-2.99,12.62-4.66h-2.19v-29.9h29.9v16.44c1.57-0.9,3.12-1.81,4.66-2.75
					v-13.69h20.11c2-1.52,3.97-3.07,5.91-4.66H360v-29.9h29.9v26.66c1.57-1.34,3.13-2.7,4.66-4.09v-22.19
					c-9.56-2.28-20.12-3.51-31.46-5.05H360v-0.43c-1.54-0.21-3.09-0.43-4.66-0.67v1.1h-29.9v-7.34c-1.54-0.44-3.1-0.91-4.66-1.41
					v8.75h-29.9v-28.02l-4.66,0.4v27.62L260.79,689.41L260.79,689.41z M355.33,694.08h-29.9v29.9h29.9V694.08z M320.77,728.64h-29.9
					v29.9h29.9V728.64z M320.77,694.08h-29.9v29.9h29.9V694.08z M224.72,763.2h-25.43v7.59c-1.56-0.31-3.11-0.62-4.66-0.96v-6.63
					h-24.12c-4.27-1.44-8.47-2.99-12.62-4.66h2.18v-29.9h-29.9v16.43c-1.57-0.9-3.12-1.81-4.66-2.74v-13.69h-20.1
					c-2-1.52-3.97-3.07-5.91-4.66h26.01v-29.9H95.6v26.65c-1.57-1.34-3.13-2.7-4.66-4.09v-22.18c9.57-2.28,20.12-3.51,31.47-5.05
					h3.09v-0.42c1.54-0.22,3.09-0.44,4.66-0.68v1.1h29.9v-7.34c1.54-0.45,3.1-0.91,4.66-1.42v8.75h29.9v-28.02l4.66,0.4v27.62h25.43
					v4.66h-25.43v29.9h25.43v4.66h-25.43v29.9h25.43L224.72,763.2L224.72,763.2z M194.63,728.64h-29.9v29.9h29.9V728.64z
					 M194.63,694.08h-29.9v29.9h29.9V694.08z M160.07,694.08h-29.9v29.9h29.9V694.08z"/>
				<path class="st8" d="M201.88,644.3l22.84,19.68l-18.96,37.91l-23.78-28.87c0,0,6.4-10.5,11.54-17.67
					C198.65,648.18,201.88,644.3,201.88,644.3L201.88,644.3z"/>
				<path class="st8" d="M283.62,644.3l-22.83,19.68l18.95,37.91l23.78-28.87c0,0-6.4-10.5-11.53-17.67
					C286.86,648.18,283.62,644.3,283.62,644.3z"/>
			</g>
		</g>
	</g>
	<g id="_x30_9">
		<path class="st9" d="M1170,321.41c125.24,0,226.78,101.53,226.78,226.78c0,125.24-101.53,226.77-226.78,226.77
			S943.23,673.43,943.23,548.19C943.23,422.94,1044.76,321.41,1170,321.41z"/>
		<path class="st10" d="M1091,635.02c0,0-1.35-7.78,0.6-12.42c1.94-4.64,5.54-5.69,5.54-5.69s-2.7-10.03-4.94-21.99
			c-2.24-11.97-2.09-14.22-2.09-14.22l9.58,35.69c0,0,4.56-2.4,15.93-2.84c11.37-0.45,92.33-2.69,105.8,1.8
			c13.47,4.49,15.57,14.36,15.57,14.36s4.19-17.66,5.84-26.03c1.64-8.38,2.24-12.87,2.24-12.87s0.15,10.92-2.24,23.8
			c-2.4,12.87-4.05,19.45-4.05,19.45s1.28,4.86,1.65,9.72c0.37,4.87,0.2,10.74,0.2,10.74l16.12-25.24l10.48-65.54l-1.09-59.02
			l-185.18-40.58l-23.82,47.52l20.95,97.56L1091,635.02L1091,635.02z"/>
		<g>
			<g>
				<path class="st11" d="M1127.28,565.68h85.44c0,42.5-14.26,90.23,35.8,107.51c37.56,12.97,70.87,9.83,95.62,20.25
					c-41.6,49.82-104.16,81.52-174.14,81.52c-69.98,0-132.54-31.7-174.14-81.52c24.75-10.42,58.06-7.28,95.62-20.25
					C1141.54,655.91,1127.28,608.18,1127.28,565.68L1127.28,565.68z"/>
				<path class="st12" d="M1211.96,629.57c-12.68,7.35-26.91,11.47-41.95,11.47c-15.04,0-29.27-4.12-41.95-11.47
					c2.87-19.55-0.78-42.39-0.78-63.89h85.44C1212.72,587.18,1209.08,610.02,1211.96,629.57L1211.96,629.57z"/>
				<path class="st11" d="M1170,392.65c53.09,0,96.12,51.32,96.12,114.63s-43.03,114.64-96.12,114.64
					c-53.09,0-96.12-51.33-96.12-114.64S1116.91,392.65,1170,392.65z"/>
			</g>
			<g>
				<path class="st13" d="M1297.05,683.73c17.75,2.4,33.68,4.07,47.09,9.72c-41.6,49.82-104.16,81.52-174.14,81.52
					c-69.98,0-132.54-31.7-174.14-81.52c13.42-5.65,29.34-7.31,47.09-9.72c34.61,18.49,78.84,29.58,127.05,29.58
					C1218.21,713.31,1262.44,702.21,1297.05,683.73z"/>
				<path class="st14" d="M1297.05,683.73c2.33,0.32,4.63,0.62,6.9,0.92c0.64,1.44,0.99,3.04,0.99,4.72
					c0,6.5-5.27,11.77-11.77,11.77c-5.87,0-10.73-4.29-11.62-9.91C1286.91,688.88,1292.08,686.38,1297.05,683.73L1297.05,683.73z
					 M1344.14,693.44c-2.17,2.61-4.41,5.18-6.7,7.69c-6.33-0.2-11.4-5.39-11.4-11.77c0-0.42,0.02-0.84,0.06-1.25
					C1332.52,689.43,1338.55,691.09,1344.14,693.44z M1323.23,715.35c-5.77,5.29-11.82,10.29-18.11,14.97
					c-1.45-1.95-2.31-4.38-2.31-7c0-6.5,5.27-11.77,11.77-11.77C1318,711.54,1321.08,713.01,1323.23,715.35L1323.23,715.35z
					 M1260.23,756.28c-6.97,3.02-14.11,5.71-21.42,8.04c-1.28-1.88-2.02-4.15-2.02-6.59c0-6.5,5.27-11.77,11.77-11.77
					C1254.57,745.96,1259.52,750.47,1260.23,756.28L1260.23,756.28z M1118.09,768.99c-4.02-0.94-8-2-11.93-3.15
					c-2.01-2.11-3.24-4.97-3.24-8.11c0-6.5,5.27-11.77,11.77-11.77c6.49,0,11.77,5.27,11.77,11.77
					C1126.45,763.04,1122.93,767.53,1118.09,768.99z M1081.81,757.18c-6.39-2.7-12.62-5.7-18.69-8.95c1.95-1.43,4.34-2.27,6.94-2.27
					C1076.37,745.96,1081.52,750.93,1081.81,757.18L1081.81,757.18z M1013.73,688.15c7.04-1.45,14.55-2.47,22.47-3.52
					c0.64,1.45,1,3.05,1,4.74c0,6.5-5.27,11.77-11.77,11.77s-11.77-5.27-11.77-11.77C1013.67,688.95,1013.69,688.55,1013.73,688.15z
					 M1058.43,691.22c6.09,2.67,12.43,5.11,18.97,7.34c-2.01,1.61-4.56,2.57-7.35,2.57
					C1064.19,701.13,1059.33,696.84,1058.43,691.22z M1174.57,713.27c3.89-0.06,7.75-0.18,11.59-0.39c3.75,1.97,6.31,5.9,6.31,10.43
					c0,6.49-5.27,11.77-11.77,11.77c-6.5,0-11.77-5.27-11.77-11.77C1168.93,719.06,1171.18,715.34,1174.57,713.27z M1203.93,745.96
					c6.5,0,11.77,5.27,11.77,11.77c0,6.49-5.27,11.77-11.77,11.77c-6.49,0-11.77-5.27-11.77-11.77
					C1192.16,751.23,1197.43,745.96,1203.93,745.96z M1159.3,745.96c6.5,0,11.77,5.27,11.77,11.77c0,6.49-5.27,11.77-11.77,11.77
					c-6.5,0-11.77-5.27-11.77-11.77C1147.54,751.23,1152.81,745.96,1159.3,745.96z M1269.95,711.54c6.5,0,11.77,5.27,11.77,11.77
					c0,6.49-5.27,11.77-11.77,11.77c-6.5,0-11.77-5.27-11.77-11.77C1258.18,716.82,1263.45,711.54,1269.95,711.54z M1225.32,711.54
					c6.5,0,11.77,5.27,11.77,11.77c0,6.49-5.27,11.77-11.77,11.77c-6.49,0-11.77-5.27-11.77-11.77
					C1213.56,716.82,1218.83,711.54,1225.32,711.54z M1136.08,711.54c6.49,0,11.76,5.27,11.76,11.77c0,6.49-5.27,11.77-11.76,11.77
					c-6.5,0-11.77-5.27-11.77-11.77C1124.31,716.82,1129.58,711.54,1136.08,711.54z M1091.45,711.54c6.5,0,11.77,5.27,11.77,11.77
					c0,6.49-5.27,11.77-11.77,11.77c-6.5,0-11.77-5.27-11.77-11.77C1079.68,716.82,1084.95,711.54,1091.45,711.54z M1046.83,711.54
					c6.5,0,11.77,5.27,11.77,11.77c0,6.49-5.27,11.77-11.77,11.77c-6.5,0-11.77-5.27-11.77-11.77
					C1035.06,716.82,1040.33,711.54,1046.83,711.54z"/>
			</g>
		</g>
		<path class="st15" d="M1182.44,422.68c0,0-22.15,7.18-49.98,32.32c-17.96,16.22-34.7,33.82-43.79,43.66
			c14.18-10.39,37.9-28.11,50.96-39.77C1159.09,441.54,1182.44,422.68,1182.44,422.68L1182.44,422.68z M1081.07,509.8
			c-1.3,9.12-4.43,36.01-1.28,67.01c3.89,38.31,14.36,62.85,14.36,62.85l-30.53-23.94c0,0-16.76-15.57-15.56-87.99
			c1.19-72.43,14.36-105.95,61.65-132.88c47.29-26.94,82.73-2.92,82.73-2.92s34.87-1.42,55.84,16.39
			c21.84,18.56,34.41,38.91,38.6,87.69s-8.08,133.78-8.08,133.78s-8.38,8.68-20.65,15.86c-12.27,7.18-17.66,9.27-17.66,9.27
			s8.98-32.62,12.57-75.42c3.59-42.79,2.09-51.18,2.09-51.18c-15.44-29.48-38.08-77.65-65.13-100.12
			c-0.15,0.15-26.24,26.56-58.77,49.54C1109.09,493.4,1090.63,504.37,1081.07,509.8z"/>
	</g>
	<g id="_x30_8">
		<path class="st16" d="M1633.63,321.41c125.24,0,226.77,101.53,226.77,226.77c0,125.24-101.53,226.77-226.77,226.77
			s-226.77-101.53-226.77-226.77C1406.85,422.94,1508.39,321.41,1633.63,321.41z"/>
		<g>
			<path class="st17" d="M1587.69,550.13h91.88c0,45.71-15.33,97.03,38.5,115.62c37.19,12.84,70.51,10.99,96.33,19.36
				c-41.41,54.58-106.97,89.85-180.76,89.85c-73.8,0-139.35-35.26-180.76-89.85c25.82-8.37,59.14-6.53,96.33-19.36
				C1603.02,647.17,1587.69,595.85,1587.69,550.13L1587.69,550.13z"/>
			<g>
				<path class="st17" d="M1548.78,471.72c0,0-7.86-28.71-31.83-24.12s-15.35,59.34,2.99,73.12s32.21-3.44,32.21-3.44
					L1548.78,471.72z"/>
				<path class="st17" d="M1718.48,471.72c0,0,7.86-28.71,31.83-24.12c23.97,4.59,15.36,59.34-2.99,73.12
					c-18.35,13.78-32.2-3.44-32.2-3.44L1718.48,471.72z"/>
			</g>
			<path class="st18" d="M1678.74,618.84c-13.64,7.9-28.94,12.34-45.11,12.34c-16.17,0-31.48-4.43-45.11-12.34
				c3.09-21.03-0.83-45.59-0.83-68.71h91.88C1679.56,573.25,1675.65,597.81,1678.74,618.84L1678.74,618.84z"/>
			<path class="st17" d="M1633.63,364.07c57.09,0,103.37,55.19,103.37,123.28c0,68.08-46.28,123.27-103.37,123.27
				c-57.09,0-103.36-55.19-103.36-123.27C1530.26,419.26,1576.54,364.07,1633.63,364.07z"/>
		</g>
		<path class="st4" d="M1732.23,451.27c-0.29,2.09-2.73,19.85-3.01,35.32c-0.3,16.46,0.6,26.93,0.6,26.93h-14.54v-66.44h-81.18
			h-0.95h-81.18v66.44h-14.54c0,0,0.9-10.48,0.6-26.93c-0.25-13.76-2.2-29.35-2.84-34.08c-0.17,0.01-0.35,0.03-0.53,0.03
			c-2.92,0-5.28-2.36-5.28-5.28c0-1.43,0.56-2.72,1.48-3.67c-2.6-2.41-4.24-5.85-4.24-9.68c0-5.25,3.07-9.77,7.5-11.89
			c-4.56-3.56-7.5-9.11-7.5-15.34c0-10.74,8.71-19.45,19.45-19.45c1.34,0,2.64,0.13,3.9,0.39c0.19-7.53,6.35-13.56,13.91-13.56
			c2.43,0,4.72,0.63,6.71,1.72c2.78-6.69,8.61-11.8,15.75-13.59c1.11-7.67,7.72-13.57,15.7-13.57c2.18,0,4.26,0.44,6.14,1.23
			c4.77-4.13,10.99-6.62,17.8-6.62c6.32,0,12.14,2.16,16.77,5.77c1.82-1.53,4.16-2.45,6.73-2.45c5.77,0,10.44,4.68,10.44,10.44v0.01
			c0.26-0.01,0.52-0.01,0.78-0.01c6.89,0,13.09,2.95,17.41,7.65c2.18-2.83,5.6-4.66,9.44-4.66c5.54,0,10.2,3.79,11.52,8.92
			c2.73,0.63,4.99,2.49,6.19,4.95c0.91-0.26,1.87-0.41,2.87-0.41c5.7,0,10.32,4.63,10.32,10.33c0,1.29-0.24,2.53-0.68,3.68
			c2.43,1.95,4.29,4.58,5.29,7.61c0.35-0.04,0.71-0.06,1.08-0.06c5.12,0,9.28,4.15,9.28,9.28c0,0.74-0.09,1.47-0.26,2.16
			c3.49,0.83,6.09,3.97,6.09,7.72c0,2.93-1.59,5.49-3.95,6.87c4.71,1.43,8.14,5.8,8.14,10.98c0,4.7-2.82,8.73-6.87,10.51
			c0.65,0.91,1.03,2.02,1.03,3.22C1737.61,448.74,1735.22,451.19,1732.23,451.27L1732.23,451.27z"/>
		<g>
			<path class="st19" d="M1580.89,638.23c0,0-7.87,0.53-14.15,7.72c-6.28,7.18-17.21,13.46-23.8,15.56
				c-6.58,2.09-7.65,7.93-7.65,7.93s-10.3-6.14-20.02-3.59c-9.73,2.54-40.56,4.18-49.38,6.88c-6.8,2.07-12,8.3-14.04,11.05
				c41.35,55.34,107.38,91.18,181.78,91.18s140.43-35.83,181.78-91.18c-2.03-2.75-7.24-8.97-14.04-11.05
				c-8.82-2.69-39.65-4.34-49.38-6.88c-9.73-2.55-20.02,3.59-20.02,3.59s-1.07-5.84-7.65-7.93c-6.58-2.1-17.51-8.38-23.8-15.56
				c-6.28-7.19-14.15-7.72-14.15-7.72l-52.73,11.98L1580.89,638.23L1580.89,638.23z"/>
			<path class="st20" d="M1636.91,662.54h-6.57v112.39c1.09,0.01,2.19,0.03,3.28,0.03s2.19-0.01,3.28-0.03V662.54z"/>
			<path class="st21" d="M1607.45,635.53c-10.8-3.55-16.31-14.56-21.4-13.32c-5.09,1.24-3.3,6.57-4.94,12.07
				c-1.64,5.51-8.24,5.33-9.43,11.37c-1.2,6.03,2.1,12.61,15.86,19.89c23.23,12.29,68.8,12.36,92.16,0
				c13.76-7.28,17.06-13.85,15.86-19.89c-1.2-6.04-7.79-5.86-9.43-11.37c-1.64-5.5,0.15-10.83-4.94-12.07
				c-5.09-1.24-10.6,9.77-21.4,13.32C1649.63,638.87,1617.62,638.87,1607.45,635.53L1607.45,635.53z"/>
		</g>
	</g>
	<g id="_x30_7">
		<path class="st22" d="M2097.25,321.41c125.24,0,226.77,101.53,226.77,226.78s-101.53,226.77-226.77,226.77
			s-226.77-101.53-226.77-226.77S1972.01,321.41,2097.25,321.41L2097.25,321.41z"/>
		<path class="st4" d="M1996.39,495.74c0,0-15.36,87.63-28.42,140.78c-13.06,53.15-30.7,72.02-30.7,72.02h159.44h1.08h159.45
			c0,0-17.64-18.87-30.7-72.02c-13.06-53.15-28.42-140.78-28.42-140.78l-100.86,2.86L1996.39,495.74L1996.39,495.74z"/>
		<g>
			<g>
				<path class="st23" d="M2051.31,549.57h91.88c0,45.71-15.33,97.03,38.49,115.61c37.36,12.9,70.81,10.99,96.68,19.49
					c-41.39,54.85-107.11,90.3-181.11,90.3c-74,0-139.72-35.45-181.11-90.3c25.87-8.5,59.32-6.59,96.68-19.49
					C2066.65,646.6,2051.31,595.28,2051.31,549.57z"/>
				<g>
					<path class="st23" d="M2012.4,471.15c0,0-7.86-28.71-31.83-24.12c-23.96,4.6-15.35,59.34,3,73.12
						c18.35,13.78,32.2-3.44,32.2-3.44L2012.4,471.15z"/>
					<path class="st23" d="M2182.11,471.15c0,0,7.86-28.71,31.83-24.12c23.96,4.6,15.35,59.34-3,73.12
						c-18.35,13.78-32.2-3.44-32.2-3.44L2182.11,471.15z"/>
				</g>
				<path class="st24" d="M2142.36,618.28c-13.64,7.9-28.94,12.33-45.11,12.33c-16.18,0-31.48-4.43-45.11-12.33
					c3.09-21.03-0.83-45.58-0.83-68.71h91.88C2143.19,572.69,2139.27,597.24,2142.36,618.28L2142.36,618.28z"/>
				<path class="st23" d="M2097.25,363.5c57.09,0,103.37,55.19,103.37,123.28c0,68.08-46.28,123.27-103.37,123.27
					c-57.09,0-103.37-55.19-103.37-123.27C1993.89,418.69,2040.16,363.5,2097.25,363.5L2097.25,363.5z"/>
			</g>
			<path class="st25" d="M2208.22,672.33c13.72,2.79,26.72,4.27,38.77,5.93c1.05,8.04,2.15,20.64,2.19,38.28
				c-40.21,36.31-93.49,58.42-151.93,58.42s-111.72-22.11-151.93-58.42c0.04-17.64,1.14-30.24,2.19-38.28
				c12.05-1.66,25.04-3.14,38.77-5.93v11.56c0,20.46,14.85,37.2,33.01,37.2h155.93c18.15,0,33.01-16.74,33.01-37.2V672.33z"/>
		</g>
		<path class="st26" d="M2176.72,473.88l1.47,283.54l16.53-4.43c0.88-0.42,1.75-0.85,2.62-1.27V449.2c0,0-6.38-31.5-32.41-60.23
			c-31.49-34.75-103.93-34.67-135.35,0c-26.04,28.73-32.41,60.23-32.41,60.23v302.52c0.87,0.43,1.74,0.85,2.62,1.27l16.53,4.43
			l1.47-283.54h11.89l0.85-14.17l1.87-31.25l1.87,31.25l0.85,14.17h25.11l1.27-14.17l2.79-31.25l2.8,31.25l1.27,14.17h22.81
			l2.37-19.8l3.73-31.25l3.73,31.25l2.37,19.8h22.3l0.85-14.17l1.87-31.25l1.87,31.25l0.85,14.17h25.1l1.27-14.17l2.79-31.25
			l2.8,31.25l1.27,14.17H2176.72L2176.72,473.88z"/>
	</g>
	<g id="_x30_6">
		<path class="st27" d="M242.76,785.04c125.24,0,226.77,101.53,226.77,226.77S368,1238.59,242.76,1238.59
			S15.98,1137.06,15.98,1011.81S117.51,785.04,242.76,785.04L242.76,785.04z"/>
		<g>
			<path d="M301.68,1018.85c-0.04-3.29,2.6-5.99,5.89-6.03c3.3-0.04,5.99,2.6,6.03,5.89c0,0.03,0.01,1.05,0.03,2.88
				c1.17-1.09,2.79-1.71,4.51-1.58c1.56,0.11,2.93,0.82,3.93,1.88c-0.12-10.41-0.27-17.65-0.28-17.71
				c-0.06-3.29,2.56-6.01,5.85-6.08c3.29-0.07,6.01,2.55,6.08,5.84c0.01,0.19,1.45,66.94-1.1,88.79
				c-2.53,21.68-6.48,48.23-6.49,48.31c-0.48,3.27-3.51,5.53-6.78,5.05c-3.27-0.47-5.53-3.51-5.05-6.78
				c0.01-0.08,3.94-26.52,6.44-47.94c1.15-9.88,1.46-29.39,1.46-47.45c-0.94,10.64-2.31,24.76-3.95,38.42
				c-3.24,27.01-7.62,48.55-7.63,48.62c-0.66,3.23-3.81,5.31-7.04,4.65c-1.53-0.31-2.8-1.18-3.65-2.35
				c-3.41,6.81-6.12,8.59-6.13,8.6c-2.71,1.87-6.43,1.19-8.3-1.52c-1.87-2.71-1.19-6.43,1.52-8.3c0.01-0.01,3.01-1.93,6.64-15.26
				c-0.98,0.31-2.05,0.38-3.12,0.13c-3.21-0.72-5.24-3.92-4.51-7.13c0.01-0.04,2.82-12.7,5.72-26.48
				c2.77-13.16,3.48-44.42,3.48-44.51c0.06-3.29,2.79-5.91,6.08-5.85c0.13,0.01,0.26,0.01,0.38,0.03
				C301.76,1024.45,301.69,1018.9,301.68,1018.85L301.68,1018.85z M340.51,973.65c-0.47-3.27,1.8-6.29,5.08-6.76
				c3.27-0.46,6.29,1.81,6.75,5.08c0.02,0.14,7.22,49.42,9.03,101.93c1.8,52.5,0,76.31,0,76.38c-0.24,3.3-3.09,5.78-6.38,5.54
				c-3.3-0.23-5.78-3.09-5.54-6.38c0-0.06,1.78-23.51,0-75.17C347.66,1022.64,340.53,973.79,340.51,973.65L340.51,973.65z
				 M172.12,1002.97c-0.59-3.24,1.55-6.35,4.79-6.94c3.25-0.59,6.35,1.56,6.94,4.8c0.03,0.14,8.98,47.67,6.56,81.58
				c-2.39,33.53-6.59,52.17-6.61,52.22c-0.71,3.22-3.89,5.25-7.11,4.54c-3.21-0.71-5.24-3.9-4.53-7.11
				c0.01-0.05,3.99-17.66,6.33-50.49C180.81,1049.11,172.15,1003.11,172.12,1002.97L172.12,1002.97z M128.96,974.6
				c0.4-3.28,3.38-5.61,6.66-5.21c3.28,0.4,5.61,3.38,5.21,6.66c-0.02,0.2-8.89,71.79-9.67,116.44
				c-0.78,44.31,3.01,57.53,3.02,57.58c0.88,3.18-0.98,6.46-4.16,7.34c-3.18,0.87-6.47-0.99-7.35-4.16
				c-0.01-0.04-4.25-14.88-3.44-60.94C120.04,1046.6,128.93,974.81,128.96,974.6L128.96,974.6z M146.53,992.04
				c0.09-3.29,2.83-5.89,6.13-5.8c3.29,0.09,5.89,2.83,5.8,6.12c-0.01,0.18-1.77,59.87-1.77,94.29c0,33.66,1.77,57.34,1.77,57.4
				c0.23,3.3-2.25,6.15-5.54,6.38c-3.29,0.24-6.15-2.24-6.38-5.54c-0.01-0.07-1.82-24.38-1.82-58.24
				C144.72,1053.56,146.53,992.22,146.53,992.04L146.53,992.04z"/>
			<g>
				<path class="st28" d="M196.82,1013.43h91.88c0,45.71-15.34,97.03,38.49,115.62c37.29,12.88,70.69,10.99,96.54,19.44
					c-41.4,54.73-107.05,90.11-180.97,90.11c-73.92,0-139.57-35.37-180.97-90.11c25.85-8.45,59.25-6.56,96.54-19.44
					C212.15,1110.46,196.82,1059.14,196.82,1013.43L196.82,1013.43z"/>
				<g>
					<path class="st28" d="M157.9,935.01c0,0-7.86-28.72-31.83-24.12c-23.97,4.59-15.36,59.34,2.99,73.12
						c18.35,13.78,32.2-3.44,32.2-3.44L157.9,935.01L157.9,935.01z"/>
					<path class="st28" d="M327.61,935.01c0,0,7.86-28.72,31.83-24.12c23.96,4.59,15.36,59.34-3,73.12
						c-18.35,13.78-32.2-3.44-32.2-3.44L327.61,935.01L327.61,935.01z"/>
				</g>
				<path class="st29" d="M287.87,1082.14c-13.63,7.89-28.94,12.33-45.11,12.33c-16.18,0-31.48-4.44-45.11-12.33
					c3.09-21.03-0.83-45.59-0.83-68.71h91.88C288.7,1036.55,284.77,1061.11,287.87,1082.14L287.87,1082.14z"/>
				<path class="st28" d="M242.76,827.36c57.09,0,103.37,55.19,103.37,123.27s-46.28,123.27-103.37,123.27
					s-103.37-55.19-103.37-123.27S185.67,827.36,242.76,827.36L242.76,827.36z"/>
			</g>
			<g>
				<path class="st30" d="M352.87,1005.51c0.13,10.41-16.94,10.41-16.8,0c0.07-5.4,3.78-12.81,7.1-17.92
					c-2.26-0.58-3.94-2.63-3.94-5.08c0-2.9,2.35-5.24,5.24-5.24c2.89,0,5.24,2.34,5.24,5.24c0,2.44-1.68,4.5-3.94,5.08
					C349.09,992.69,352.8,1000.12,352.87,1005.51z"/>
				<path class="st30" d="M146.57,1005.51c0.13,10.41-16.94,10.41-16.8,0c0.07-5.4,3.78-12.81,7.1-17.92
					c-2.26-0.58-3.94-2.63-3.94-5.08c0-2.9,2.35-5.24,5.24-5.24c2.89,0,5.24,2.34,5.24,5.24c0,2.44-1.68,4.5-3.93,5.08
					C142.8,992.69,146.5,1000.12,146.57,1005.51L146.57,1005.51z"/>
			</g>
			<path d="M162.48,924.12c1.88,20.53,12.45,140.68,8.09,202.87c-2.44,34.66-7.96,59.96-12.86,76.55
				c1.47,10.12,2.48,16.1,2.49,16.17c0.19,1.13,0.04,2.24-0.36,3.23c-6.29-2.47-12.44-5.23-18.45-8.23
				c1.19-3.04,2.61-7.01,4.13-11.94c-4.22-29.61-11.43-89.1-10.31-142.62c1.38-65.61,4.77-125.36,5.57-138.88
				c-1.08-0.98-1.76-2.32-1.93-3.76c-0.69-1.1-1.02-2.44-0.86-3.84c0-0.06,2.2-19.9,16.14-38.75l0.82-1.12
				c9.85-13.32,17.34-23.45,34.37-32.15c-0.2-2.17,0.8-4.36,2.77-5.61c6.31-3.99,15.34-7.7,24.8-10.26
				c8.81-2.38,18.15-3.79,26.22-3.51c16.47,0.55,33.57,7.44,33.62,7.46c0.87,0.34,1.61,0.87,2.2,1.52
				c5.39,0.25,17.49,3.32,35.6,21.83c23.84,24.37,32.24,57.64,32.27,57.73c0.09,0.33,0.14,0.66,0.17,0.99
				c1.08,2.29,0.62,5.1-1.33,6.92c-0.03,0.03-6.53,6.24-14.95,4.25c0.94,3.39,1.85,6.94,2.74,10.65
				c18.46,77.61,11.61,254.76,10.76,276.9l-0.03,0.7c-0.05,1.22-0.11,2.41-0.19,3.56c-4.12,2.05-8.31,4-12.56,5.82
				c0.38-2.77,0.68-6.01,0.83-9.8l0.03-0.7c0.85-21.95,7.63-197.57-10.48-273.71c-17.47-73.46-42.5-74.59-42.57-74.6
				c-2.98-0.22-5.29-2.6-5.52-5.49c-0.61,0.4-1.26,0.68-1.95,0.84c-1.28,2.87-18.19,39.26-56.63,55
				C193.26,921.09,174.68,923.62,162.48,924.12L162.48,924.12z M158.64,1126.2c3.73-53.09-3.6-149.3-6.86-187.61
				c-1.35,25.25-3.6,72.02-4.64,121.79c-0.79,37.74,2.65,78.61,6.2,109.51C155.53,1157.62,157.45,1143.1,158.64,1126.2z
				 M210.58,901.09c18.55-7.6,31.45-20.62,39.54-31.32c-8.99,5.91-21.88,13.25-38.55,19.93c-19.21,7.71-34.95,16.27-44.98,22.24
				C177.49,911.09,192.75,908.4,210.58,901.09z M217.15,864.69c-23.31,7.77-39.72,21.56-50.24,33.31
				c10.25-5.79,24.09-12.89,40.23-19.37c20.36-8.17,34.54-17.19,42.52-23.01C242.42,857.02,232.05,859.72,217.15,864.69
				L217.15,864.69z"/>
			<path class="st31" d="M106.89,1140.26v53.13c-3.68-2.76-7.27-5.64-10.77-8.61v-43.09
				C99.64,1141.23,103.23,1140.76,106.89,1140.26z M394.2,1180.59c-3.49,3.14-7.09,6.17-10.78,9.09v-48.77
				c3.67,0.49,7.26,0.96,10.78,1.45V1180.59z"/>
		</g>
	</g>
	<g id="_x30_5">
		<path class="st32" d="M706.38,321.41c125.24,0,226.77,101.53,226.77,226.77S831.62,774.96,706.38,774.96
			S479.6,673.43,479.6,548.19S581.14,321.41,706.38,321.41L706.38,321.41z"/>
		<g>
			<g>
				<path class="st33" d="M660.44,549.47h91.88c0,45.71-15.33,97.03,38.5,115.62c37.38,12.91,70.85,10.98,96.74,19.5
					c-41.39,54.89-107.14,90.38-181.17,90.38s-139.78-35.49-181.17-90.38c25.88-8.52,59.35-6.59,96.74-19.5
					C675.77,646.5,660.44,595.18,660.44,549.47L660.44,549.47z"/>
				<g>
					<path class="st33" d="M621.53,471.06c0,0-7.87-28.71-31.83-24.12c-23.96,4.6-15.35,59.34,3,73.12
						c18.35,13.78,32.21-3.45,32.21-3.45L621.53,471.06L621.53,471.06z"/>
					<path class="st33" d="M791.23,471.06c0,0,7.86-28.71,31.82-24.12c23.97,4.6,15.35,59.34-3,73.12
						c-18.35,13.78-32.2-3.45-32.2-3.45L791.23,471.06z"/>
				</g>
				<path class="st24" d="M751.49,618.18c-13.63,7.9-28.94,12.33-45.11,12.33s-31.48-4.43-45.11-12.33
					c3.09-21.03-0.83-45.59-0.83-68.71h91.88C752.32,572.59,748.4,597.15,751.49,618.18L751.49,618.18z"/>
				<path class="st33" d="M706.38,363.41c57.09,0,103.37,55.19,103.37,123.27c0,68.08-46.28,123.28-103.37,123.28
					s-103.37-55.19-103.37-123.28C603.01,418.6,649.29,363.41,706.38,363.41L706.38,363.41z"/>
			</g>
			<path class="st29" d="M805.2,450.4l-10.36,71.96l-7.65-68.62c0,0-4.49-18.25-10.17-28.43c-5.68-10.18-15.87-18.85-15.87-18.85
				s-10.77,15.86-31.72,29.03c-20.94,13.16-32.62,13.16-32.62,13.16s14.36-8.08,23.64-20.65c9.27-12.57,11.37-17.06,11.37-17.06
				s-35.61,29.63-59.55,39.5c-23.94,9.88-38.61,9.88-38.61,9.88s10.77-5.69,23.64-14.66c12.87-8.98,20.05-19.76,20.05-19.76
				s-42.19,13.17-55.06,34.42c-12.87,21.24-8.08,48.18-8.08,48.18s-8.68-17.96-9.13-37.56c-0.45-19.6,0.26-21.89,0.26-21.89
				s-2.07-1.13-3.76-1.59c-1.69-0.46-3.58-0.81-3.58-0.81s-3.05-13.01,6.23-27.38c9.27-14.36,21.84-23.34,21.84-23.34
				s-6.88,1.05-12.87,3.59c-5.98,2.55-8.67,5.69-8.67,5.69s4.04-18.11,26.18-26.19c22.14-8.08,42.5-22.74,73.02-23.64
				c30.52-0.9,47.88,14.96,47.88,14.96s-4.19-8.23-12.87-14.66c-8.68-6.43-24.84-6.88-24.84-6.88s14.21-5.39,34.56,6.58
				c20.36,11.98,19.75,23.04,19.75,23.04s5.23-6.28,4.79-14.06c-0.45-7.78-1.8-11.37-1.8-11.37s2.7,1.49,4.94,12.27
				c2.24,10.77-2.24,15.86-2.24,15.86s19,1.64,26.18,14.96c7.19,13.31,4.04,18.55,10.03,26.78c5.98,8.23,6.28,16.31,6.28,16.31
				s-0.74-3.51-2.61-6.28c-1.87-2.76-5.24-5.08-5.24-5.08s3.22,5.68,4.26,11.14c1.05,5.47,1.32,7.8,1.32,7.8s-3.08,0.52-5.09,1.51
				C807.03,449.27,805.2,450.4,805.2,450.4L805.2,450.4z"/>
			<g>
				<path class="st34" d="M644.14,652.67l62.2,9.62l59.36-12.42l4.9,4.48l0,0c0.36,0.29,0.71,0.56,1.08,0.84
					c0.19,0.14,0.38,0.29,0.57,0.43c0.39,0.29,0.78,0.58,1.18,0.86c0.18,0.12,0.34,0.24,0.52,0.36c0.43,0.29,0.87,0.59,1.32,0.88
					l0.48,0.31c0.48,0.3,0.97,0.6,1.47,0.9l0.4,0.23c0.54,0.31,1.09,0.63,1.64,0.93l0.29,0.16c0.59,0.32,1.2,0.63,1.82,0.94
					l0.24,0.12c0.65,0.33,1.31,0.64,1.99,0.94l0.16,0.08c0.7,0.32,1.42,0.63,2.15,0.93l0.07,0.03c0.76,0.31,1.53,0.62,2.31,0.91
					l0.07,0.03c0.79,0.31,1.61,0.6,2.44,0.89c37.38,12.91,70.85,10.98,96.74,19.5c-41.39,54.89-107.14,90.38-181.17,90.38
					c-74.04,0-139.78-35.49-181.17-90.38c25.88-8.52,59.35-6.59,96.74-19.5c0.84-0.29,1.65-0.59,2.45-0.89l0.04-0.02
					c0.79-0.3,1.56-0.61,2.31-0.92l0.08-0.03c0.74-0.31,1.48-0.63,2.2-0.95l0.1-0.05c0.71-0.32,1.39-0.64,2.07-0.98l0.12-0.06
					c0.66-0.33,1.3-0.66,1.94-1l0.16-0.09c0.62-0.33,1.23-0.68,1.82-1.02l0.19-0.11c0.58-0.34,1.14-0.69,1.7-1.04l0.23-0.14
					c0.53-0.34,1.05-0.68,1.56-1.03l0.28-0.19c0.49-0.34,0.98-0.69,1.45-1.04l0.29-0.22c0.46-0.34,0.91-0.69,1.34-1.05l0.31-0.26
					c0.43-0.35,0.85-0.71,1.26-1.06L644.14,652.67L644.14,652.67L644.14,652.67L644.14,652.67z"/>
				<polygon class="st5" points="655.74,637.22 706.38,662.28 677.86,711.67 633.41,660.1 				"/>
				<polygon class="st5" points="756.97,637.22 706.35,662.28 734.86,711.67 779.31,660.1 				"/>
				<path class="st1" d="M706.38,693.05c2.65,0,4.79,2.14,4.79,4.79s-2.15,4.78-4.79,4.78c-2.65,0-4.79-2.14-4.79-4.78
					S703.73,693.05,706.38,693.05z M706.38,746.77c2.65,0,4.79,2.15,4.79,4.79c0,2.65-2.15,4.78-4.79,4.78
					c-2.65,0-4.79-2.14-4.79-4.78C701.59,748.91,703.73,746.77,706.38,746.77z M706.38,719.91c2.65,0,4.79,2.15,4.79,4.79
					c0,2.65-2.15,4.78-4.79,4.78c-2.65,0-4.79-2.14-4.79-4.78C701.59,722.06,703.73,719.91,706.38,719.91z"/>
			</g>
		</g>
	</g>
	<g id="_x30_4">
		<path class="st35" d="M1633.62,785.04c125.25,0,226.78,101.53,226.78,226.78c0,125.24-101.53,226.77-226.78,226.77
			c-125.24,0-226.77-101.53-226.77-226.77C1406.85,886.57,1508.38,785.04,1633.62,785.04L1633.62,785.04z"/>
		<g>
			<path class="st4" d="M1523.8,967.54c0,0,3.59,53.87-3.59,78.41c-7.18,24.54-17.96,19.75-20.35,34.12
				c-2.39,14.37,10.77,19.15,8.98,27.53c-1.8,8.38-22.15,5.39-32.92,19.15c-10.77,13.76-9.58,32.32-9.58,32.32l331.6,1.79
				c0,0,17.36-12.57,1.2-28.13c-16.16-15.56-28.73-16.16-32.92-28.73c-4.19-12.57,22.75-19.75,12.57-38.9
				c-10.18-19.15-25.74-16.16-33.52-30.53c-7.78-14.37-2.39-71.82-2.39-71.82L1523.8,967.54L1523.8,967.54z"/>
			<g>
				<path class="st12" d="M1587.69,1013.13h91.88c0,45.71-15.33,97.03,38.49,115.61c37.37,12.91,70.84,10.99,96.71,19.5
					c-41.39,54.86-107.12,90.34-181.15,90.34c-74.02,0-139.76-35.47-181.15-90.34c25.88-8.52,59.34-6.59,96.71-19.5
					C1603.02,1110.16,1587.69,1058.85,1587.69,1013.13L1587.69,1013.13z"/>
				<g>
					<path class="st12" d="M1548.77,934.72c0,0-7.87-28.71-31.83-24.12c-23.97,4.59-15.36,59.34,2.99,73.12
						c18.35,13.78,32.21-3.44,32.21-3.44L1548.77,934.72L1548.77,934.72z"/>
					<path class="st12" d="M1718.48,934.72c0,0,7.87-28.71,31.83-24.12c23.97,4.59,15.35,59.34-3,73.12s-32.2-3.44-32.2-3.44
						L1718.48,934.72L1718.48,934.72z"/>
				</g>
				<path class="st36" d="M1678.74,1081.84c-13.63,7.9-28.94,12.34-45.11,12.34c-16.17,0-31.48-4.44-45.11-12.34
					c3.09-21.03-0.83-45.58-0.83-68.71h91.88C1679.57,1036.25,1675.65,1060.81,1678.74,1081.84L1678.74,1081.84z"/>
				<path class="st12" d="M1633.62,827.07c57.09,0,103.37,55.19,103.37,123.28s-46.28,123.28-103.37,123.28
					c-57.08,0-103.36-55.19-103.36-123.28S1576.54,827.07,1633.62,827.07L1633.62,827.07z"/>
			</g>
			<path class="st4" d="M1633.62,856.87c0,0-12.28,14.97-21.56,39.8c-9.28,24.84-49.72,33.62-56.27,32.03
				c-9.45-2.31-11.1,15.92-11.45,21.11c-1.28,19.1,7.48,45.19,7.48,45.19s-9.88-1.79-16.46-32.62c-4.61-21.6-2.25-39.46-0.42-48.21
				c-0.59-0.4-4.21-2.79-7.17-3.33c-3.24-0.6-4.63-0.7-4.63-0.7c6.93-51.27,59.7-108.47,110.48-83.06c0,0,29.54-14.92,66.05,13.8
				c36.52,28.73,35.22,71.73,35.22,71.73s-10.98,6.98-10.08,20.45c0.9,13.47,10.79,37.55,6.28,58.45
				c-4.52,20.9-32.62,21.76-32.62,21.76s17.36-3.59,20.95-22.75c3.59-19.15-6.87-27.1-27.53-45.19
				c-20.67-18.09-6.59-37.41-19.15-59.26S1633.62,856.87,1633.62,856.87L1633.62,856.87z"/>
			<g>
				<path class="st37" d="M1499.34,909.72c-6.97,10.76,6.36,30.16,19.04,25.61c1.73-0.62,3.18-1.61,4.4-2.83
					c0.4,1.68,1.11,3.28,2.26,4.71c8.39,10.54,29.93,1.03,29.66-11.79c11.66-3.77,15.35-25.69,3.54-31.27
					c-2.28-1.08-4.68-1.31-7.07-0.98c0.29-0.91,0.47-1.87,0.51-2.87c0.72-14.24-24.46-21.39-31.33-8.89
					c-0.48,0.87-0.84,1.78-1.07,2.7c-1.85-1.53-4.01-2.59-6.53-2.88C1499.77,879.79,1491.4,900.38,1499.34,909.72L1499.34,909.72z"
					/>
				<path class="st7" d="M1526.17,900.64c0,0,4.19-12.87,7.18-10.48c2.99,2.39-0.6,14.97-0.6,14.97s11.82-3.14,14.22-0.45
					c2.39,2.7-9.73,4.94-9.73,4.94s9.92,11.44,6.23,13.65c-3.69,2.21-10.58-7.82-10.58-7.82s-3.59,11.08-5.84,11.38
					c-2.25,0.3-0.15-11.82-0.15-11.82s-16.46,9.87-16.76,5.24c-0.3-4.64,12.99-10.11,12.99-10.11s-16.74-4.55-14.04-8.44
					c2.7-3.89,12.87,1.05,12.87,1.05s-5.09-7.93-3.14-9.43C1520.77,891.82,1526.17,900.64,1526.17,900.64L1526.17,900.64z"/>
			</g>
			<path class="st31" d="M1724.67,1130.89c34.71,10.57,65.76,9.35,90.11,17.36c-41.39,54.87-107.12,90.34-181.15,90.34
				c-74.02,0-139.76-35.47-181.15-90.34c24.34-8.01,55.4-6.79,90.11-17.36v61.55h182.08L1724.67,1130.89L1724.67,1130.89z"/>
			<path class="st38" d="M1542.62,1192.44v27.13c-14.98-6.57-29.12-14.72-42.2-24.23v-55.74c13.24-1.85,27.37-4.21,42.17-8.71v61.55
				L1542.62,1192.44L1542.62,1192.44z M1766.84,1195.34c-13.08,9.51-27.22,17.65-42.2,24.23v-27.13h0.03v-61.55
				c14.8,4.51,28.93,6.87,42.17,8.72V1195.34L1766.84,1195.34z"/>
		</g>
	</g>
	<g id="_x30_3">
		<path class="st39" d="M2097.25,785.04c125.24,0,226.77,101.53,226.77,226.77c0,125.25-101.53,226.77-226.77,226.77
			c-125.25,0-226.77-101.53-226.77-226.77C1870.48,886.57,1972,785.04,2097.25,785.04z"/>
		<g>
			<g>
				<path class="st11" d="M2051.31,1013.43h91.88c0,45.71-15.33,97.03,38.49,115.62c37.29,12.87,70.69,10.99,96.53,19.43
					c-41.4,54.74-107.05,90.11-180.97,90.11c-73.92,0-139.57-35.37-180.97-90.11c25.85-8.45,59.24-6.56,96.53-19.43
					C2066.64,1110.46,2051.31,1059.14,2051.31,1013.43z"/>
				<path class="st11" d="M2142.36,1082.14c-13.63,7.9-28.93,12.34-45.11,12.34s-31.48-4.43-45.11-12.34
					c3.09-21.03-0.83-45.58-0.83-68.71h91.88C2143.19,1036.55,2139.27,1061.11,2142.36,1082.14z"/>
				<path class="st11" d="M2097.25,827.37c57.09,0,103.36,55.19,103.36,123.27c0,68.09-46.27,123.28-103.36,123.28
					s-103.37-55.19-103.37-123.28C1993.88,882.56,2040.16,827.37,2097.25,827.37L2097.25,827.37z"/>
			</g>
			<path class="st40" d="M2239.71,1141.15c14.1,1.87,27.05,3.59,38.51,7.33c-41.4,54.74-107.05,90.11-180.97,90.11
				c-73.92,0-139.57-35.37-180.97-90.11c11.45-3.74,24.4-5.46,38.51-7.33H2239.71L2239.71,1141.15z"/>
			<path class="st32" d="M2199.35,931.35c-21.45-40.09-59.16-66.7-102.1-66.7c-42.95,0-80.66,26.61-102.1,66.7
				c7.77-58.91,50.52-103.98,102.1-103.98C2148.83,827.37,2191.59,872.43,2199.35,931.35z"/>
			<path class="st41" d="M1937.69,1143.24c0,0,26.34-13.44,41-40.67c14.67-27.24-3.16-162.8,8.82-201.71
				c14.48-47.05,57.88-89.81,109.74-87.4c51.85-2.41,95.26,40.35,109.74,87.4c11.97,38.91-5.85,174.47,8.81,201.71
				c14.67,27.23,41.01,40.67,41.01,40.67s-21.82,26.35-49.44,66.84c-32.61,18.15-70.15,28.5-110.12,28.5
				c-39.97,0-77.52-10.35-110.12-28.5C1959.51,1169.59,1937.69,1143.24,1937.69,1143.24L1937.69,1143.24z M2097.25,827.37
				c57.09,0,103.36,55.19,103.36,123.27c0,68.09-46.27,123.28-103.36,123.28c-57.09,0-103.37-55.19-103.37-123.28
				C1993.88,882.56,2040.16,827.37,2097.25,827.37L2097.25,827.37z"/>
		</g>
		<g>
			<path class="st25" d="M2009.86,1143.86L2009.86,1143.86c1.87,0,3.47,1.24,4.02,2.93c1.16-1.36,3.1-1.88,4.83-1.16l0,0
				c1.71,0.71,2.71,2.43,2.59,4.19c1.58-0.78,3.55-0.51,4.86,0.79l0,0c1.4,1.41,1.61,3.57,0.62,5.19c1.88-0.27,3.78,0.79,4.51,2.62
				l0,0c0.65,1.63,0.2,3.43-0.99,4.59c1.53,0.64,2.6,2.15,2.6,3.9l0,0c0,2-1.41,3.69-3.29,4.11c1.55,1.15,2.17,3.26,1.37,5.09l0,0
				c-0.7,1.59-2.26,2.53-3.9,2.53c0.61,1.53,0.3,3.33-0.93,4.56l0,0c-1.31,1.31-3.28,1.57-4.86,0.79c0.12,1.75-0.88,3.48-2.59,4.19
				l0,0c-1.72,0.72-3.67,0.2-4.83-1.15c-0.55,1.69-2.15,2.92-4.02,2.92l0,0c-1.87,0-3.47-1.23-4.02-2.92
				c-1.16,1.35-3.1,1.88-4.83,1.15l0,0c-1.71-0.71-2.71-2.43-2.59-4.19c-1.58,0.78-3.55,0.51-4.86-0.79l0,0
				c-1.4-1.4-1.61-3.57-0.61-5.19c-1.89,0.27-3.79-0.79-4.52-2.62l0,0c-0.65-1.63-0.2-3.43,0.99-4.59c-1.53-0.64-2.6-2.15-2.6-3.9
				l0,0c0-2.01,1.41-3.69,3.29-4.12c-1.55-1.15-2.17-3.26-1.37-5.09l0,0c0.7-1.59,2.27-2.53,3.9-2.53c-0.61-1.52-0.3-3.33,0.93-4.56
				l0,0c1.31-1.31,3.28-1.57,4.86-0.79c-0.12-1.75,0.88-3.48,2.59-4.19l0,0c1.72-0.72,3.67-0.2,4.83,1.16
				C2006.39,1145.1,2007.99,1143.86,2009.86,1143.86L2009.86,1143.86z"/>
			<path class="st7" d="M2009.86,1155.06c6.54,0,11.85,5.3,11.85,11.85c0,6.54-5.3,11.84-11.85,11.84c-6.54,0-11.85-5.3-11.85-11.84
				C1998.01,1160.37,2003.31,1155.06,2009.86,1155.06z"/>
			<path class="st13" d="M2009.86,1157.74c5.06,0,9.17,4.11,9.17,9.17c0,5.06-4.11,9.17-9.17,9.17c-5.06,0-9.17-4.11-9.17-9.17
				C2000.69,1161.84,2004.8,1157.74,2009.86,1157.74z"/>
		</g>
	</g>
	<g id="_x30_2">
		<path class="st42" d="M706.38,785.04c125.25,0,226.77,101.53,226.77,226.77s-101.53,226.77-226.77,226.77
			c-125.24,0-226.77-101.53-226.77-226.77S581.14,785.04,706.38,785.04L706.38,785.04z"/>
		<g>
			<path class="st43" d="M574.05,1096.11c0,0,1.34,16.81-2.26,27.58c-3.59,10.77-7.48,25.74-7.48,25.74l289.7,12.57
				c0,0-0.6-37.71-5.68-51.47c-5.09-13.77-6.58-34.46-6.58-34.46l-21.69-92.08l-29.8-55.42l-189.14-3l-15.56,76.62L574.05,1096.11
				L574.05,1096.11z"/>
			<g>
				<path class="st44" d="M660.44,1013.4h91.88c0,45.71-15.34,97.03,38.49,115.62c37.29,12.87,70.69,10.99,96.55,19.44
					c-41.4,54.75-107.06,90.13-180.99,90.13c-73.93,0-139.59-35.39-180.98-90.13c25.86-8.45,59.25-6.56,96.55-19.44
					C675.77,1110.42,660.44,1059.11,660.44,1013.4L660.44,1013.4z"/>
				<g>
					<path class="st44" d="M621.53,934.98c0,0-7.86-28.72-31.83-24.12c-23.96,4.59-15.35,59.34,3,73.12
						c18.35,13.78,32.21-3.45,32.21-3.45L621.53,934.98L621.53,934.98z"/>
					<path class="st44" d="M791.23,934.98c0,0,7.86-28.72,31.83-24.12c23.97,4.59,15.36,59.34-3,73.12
						c-18.35,13.78-32.2-3.45-32.2-3.45L791.23,934.98L791.23,934.98z"/>
				</g>
				<path class="st45" d="M751.49,1082.11c-13.63,7.9-28.93,12.33-45.11,12.33c-16.17,0-31.47-4.43-45.11-12.33
					c3.09-21.03-0.83-45.59-0.83-68.71h91.88C752.32,1036.52,748.4,1061.08,751.49,1082.11z"/>
				<path class="st44" d="M706.38,827.33c57.09,0,103.37,55.19,103.37,123.27s-46.28,123.27-103.37,123.27
					c-57.09,0-103.36-55.19-103.36-123.27S649.29,827.33,706.38,827.33L706.38,827.33z"/>
			</g>
			<path class="st46" d="M607.44,914.33l0.02,0.41l0,0l4.47,68.72l12.27,14.66l-1.27-42.45l0.01-0.01l0.02-0.04l0.05-0.05l0.04-0.05
				c1.23-1.58,12.46-16.07,16.41-26.24c4.19-10.78,7.49-47.88,7.49-47.88s10.77-7.78,26.33-10.18c12.86-1.97,28.16-2.32,33.09-2.38
				c4.94,0.06,20.24,0.41,33.1,2.38c15.56,2.4,26.33,10.18,26.33,10.18s3.3,37.11,7.49,47.88c3.95,10.17,15.17,24.66,16.41,26.24
				l0.04,0.05l0.04,0.05l0.03,0.04l0.01,0.01l-1.27,42.45l8.83-10.55l3.44-4.11l4.49-69.12l-0.01-0.07l-0.12,0.08
				c-12.99-50.38-52.31-87.01-98.81-87.01c-46.5,0-85.82,36.63-98.81,87.01l-0.12-0.08L607.44,914.33L607.44,914.33z"/>
			<path class="st47" d="M612.92,897.88c19.52-26.06,55.85-43.57,97.45-43.57c32.11,0,61.09,10.44,81.61,27.18
				c-18.59-32.69-50-54.16-85.61-54.16C665.11,827.33,629.5,856.18,612.92,897.88L612.92,897.88z"/>
			<path class="st47" d="M613.71,956.36c8.03-18.51,23.94-21.84,34.71-34.71c10.78-12.87,11.97-43.4,25.74-43.1
				c13.77,0.3,14.37,31.13,28.13,33.82c13.77,2.69,20.95-32.02,34.42-30.53c13.47,1.49,33.81,35.61,46.09,47.88
				s21.84,54.17,20.35,79.01c-1.49,24.85,38.61,67.34,38.61,67.34s5.15-18.31-1.19-67.04c-6.35-48.73,7.3-76.19-9.22-93.46
				c-16.52-17.27-42.24-36.34-42.24-36.34s-43.29-31.39-85.31-26.42c-42.03,4.97-74.45,24.86-84.85,35.91
				c-10.39,11.06-32.01,19.89-36.24,25.57c-4.22,5.68-18.23,18.43-8.66,53.74c9.58,35.31-8.38,59.26-9.58,83.8
				c-1.2,24.54,9.58,44.29,9.58,44.29s19.75-19.75,23.94-32.32C607.15,1036.32,599.15,989.9,613.71,956.36L613.71,956.36z"/>
			<path class="st48" d="M652.31,861.56c17.13-7.66,36.96-12.04,58.06-12.04c16.23,0,31.73,2.61,45.86,7.31
				c9.18,3.16,18.14,7.03,26.77,11.45c5.46,2.8,14.23,8.58,17.46,13.79c2.79,4.86-2.21,5.07-5.92,2.91
				c-6.9-4.15-8.9-7.67-17.24-10.95c-5.16-2.03-10.71-3.18-16.09-5.23c-2.65-1.02-5.29-1.97-7.98-2.92
				c-13.11-4.37-27.59-6.78-42.86-6.78c-19.76,0-38.26,4.07-54.17,11.18c-8.22,3.79-15.87,8.68-23.7,13.21
				c-5.72,3.3-11.21,6.85-16.97,10.21c-2.46,1.44-3.91,2.66-5.94,4.67c-3.92,3.92-8.53-2.33,0.55-9.74
				c5.08-4.15,11.25-8.11,16.64-11.9c1.87-1.32,3.74-2.63,5.62-3.94C638.76,868.33,645.26,864.78,652.31,861.56L652.31,861.56z"/>
			<path class="st47" d="M645.14,1115.69c0,0,20.63,16.05,63.13,17.24c28.6,0.81,49.88-9.3,60.74-16
				c5.56,4.84,12.69,8.93,21.81,12.08c37.29,12.87,70.69,10.99,96.55,19.44c-41.4,54.75-107.06,90.13-180.99,90.13
				c-73.93,0-139.59-35.39-180.98-90.13c25.86-8.45,59.25-6.56,96.55-19.44c9.89-3.42,17.44-7.94,23.18-13.32L645.14,1115.69
				L645.14,1115.69z"/>
			<path class="st49" d="M642.38,1118.09c0,0,4.91-6.79,6.41-11.81c1.49-5.02,1.49-5.91,2.24-5.91c0.75,0,12.64,9.58,31.5,13.32
				c18.86,3.74,19.6,3.29,21.55,6.43c1.94,3.14,5.23,17.96,5.23,17.96s-17.68,0.02-37.55-5.25
				C651.91,1127.55,642.38,1118.09,642.38,1118.09L642.38,1118.09z"/>
			<path class="st49" d="M770.31,1118.09c0,0-4.91-6.79-6.41-11.81c-1.49-5.02-1.49-5.91-2.25-5.91c-0.74,0-12.64,9.58-31.5,13.32
				c-18.85,3.74-19.6,3.29-21.55,6.43c-1.94,3.14-5.23,17.96-5.23,17.96s17.68,0.02,37.54-5.25
				C760.78,1127.55,770.31,1118.09,770.31,1118.09z"/>
			<path class="st43" d="M706.38,1141.95c2.81,0,5.09,2.27,5.09,5.09c0,2.81-2.28,5.09-5.09,5.09c-2.81,0-5.09-2.28-5.09-5.09
				C701.29,1144.23,703.57,1141.95,706.38,1141.95z M706.38,1162.37c2.81,0,5.09,2.28,5.09,5.09c0,2.81-2.28,5.09-5.09,5.09
				c-2.81,0-5.09-2.28-5.09-5.09C701.29,1164.65,703.57,1162.37,706.38,1162.37z"/>
			<path class="st46" d="M705.24,1007.35c0,0-5.09,12.87-8.68,14.66c-3.59,1.79-21.12,4.19-25.74,5.99
				c-4.62,1.78-12.57,7.48-13.77,5.09c-1.2-2.4-0.34-12.15,8.66-19.4c8.99-7.24,33.24-12.33,36.83-11.13
				C706.14,1003.76,705.24,1007.35,705.24,1007.35z M707.52,1007.35c0,0,5.09,12.87,8.68,14.66c3.59,1.79,21.12,4.19,25.74,5.99
				c4.62,1.78,12.57,7.48,13.77,5.09c1.19-2.4,0.34-12.15-8.66-19.4c-9-7.24-33.24-12.33-36.83-11.13
				C706.62,1003.76,707.52,1007.35,707.52,1007.35z"/>
		</g>
	</g>
	<g id="_x30_1">
		<path class="st7" d="M1170,785.04c125.24,0,226.77,101.53,226.77,226.78s-101.53,226.77-226.77,226.77
			s-226.78-101.53-226.78-226.77S1044.76,785.04,1170,785.04z"/>
		<g>
			<polygon class="st50" points="1064.34,977.28 1051.47,1170.61 1287.9,1177.5 1276.53,971.89 			"/>
			<g>
				<path class="st3" d="M1124.06,1013.02h91.88c0,45.71-15.33,97.03,38.49,115.62c37.41,12.91,70.9,10.97,96.78,19.52
					c-41.38,54.92-107.15,90.44-181.22,90.44c-74.07,0-139.84-35.51-181.22-90.44c25.89-8.54,59.37-6.6,96.78-19.52
					C1139.39,1110.04,1124.06,1058.73,1124.06,1013.02z"/>
				<g>
					<path class="st3" d="M1085.15,934.6c0,0-7.86-28.72-31.83-24.12c-23.97,4.6-15.35,59.34,2.99,73.12
						c18.35,13.78,32.21-3.44,32.21-3.44L1085.15,934.6L1085.15,934.6z"/>
					<path class="st3" d="M1254.85,934.6c0,0,7.86-28.72,31.83-24.12c23.97,4.6,15.35,59.34-2.99,73.12
						c-18.35,13.78-32.2-3.44-32.2-3.44L1254.85,934.6L1254.85,934.6z"/>
				</g>
				<path class="st18" d="M1215.11,1081.73c-13.63,7.9-28.93,12.33-45.11,12.33c-16.17,0-31.48-4.44-45.11-12.33
					c3.09-21.03-0.83-45.59-0.83-68.71h91.88C1215.94,1036.13,1212.02,1060.69,1215.11,1081.73z"/>
				<path class="st3" d="M1170,826.95c57.08,0,103.36,55.19,103.36,123.27S1227.09,1073.5,1170,1073.5
					c-57.09,0-103.37-55.19-103.37-123.27C1066.64,882.15,1112.92,826.95,1170,826.95z"/>
			</g>
			<g>
				<path class="st51" d="M1043.85,1138.45c4.77,5.59,19.79,21.98,39.91,32.08c0.36-0.41,9.69-11.09,27.44-11.62
					c18.1-0.55,26.5-1.97,27.6-0.36c1.1,1.6-25.08,10.24-35.4,11.62c-8.19,1.1-14.55,1.94-16.61,1.83
					c23.98,11.4,27.46,11.06,27.47,11.06c0.5-0.03,0.93,0.35,0.96,0.84c0.02,0.24-0.06,0.46-0.2,0.63c2-0.12,27.43,4.96,28.99,4.77
					c1.59-0.2-14.16-4.8-20.02-5.48c-5.86-0.68-7.85-0.55-8.63-1.02c-0.79-0.47,0.02-1.27,0.02-1.27s15.25-1.99,27.38,1.87
					c12.14,3.86,23.84,6.35,24.72,8.18c0.87,1.83-13.53,3.91-26.86,2.98c-12.58-0.89-25.33-8.74-25.75-9.88
					c-0.13,0.11-0.31,0.18-0.5,0.2c-0.01,0-4.07,0.39-29.72-11.88c0.35,0.34,11.18,10.8,15.72,22.48
					c4.62,11.87,10.03,22.55,9.15,24.37c-0.87,1.82-11.54-8.08-19.17-19.04c-7.63-10.96-9.3-26.97-8.34-26.28
					c0.96,0.69,13.4,24.51,14.55,25.62c1.15,1.11-5.15-14.03-8.3-19.03c-3.15-4.99-4.49-6.46-4.62-7.35c-0.12-0.85,0.88-0.79,1-0.79
					l-0.1-0.05c-12.02-5.76-22.34-13.82-29.93-20.79c2.71,4.52,6.24,11.38,7.64,18.29c2.4,11.84,5.74,22.7,4.62,24.26
					c-1.11,1.56-9.49-9.41-14.85-20.89c-5.37-11.47-4.35-26.71-3.56-25.91c0.79,0.79,8.58,25.07,9.47,26.3
					c0.9,1.22-2.55-13.95-4.69-19.13c-1.82-4.39-2.83-6.19-3.08-7.17c-4.13-4.1-7.02-7.45-8.4-9.11
					C1042.46,1138.67,1043.15,1138.56,1043.85,1138.45L1043.85,1138.45z M1084.62,1170.96c0.23,0.12,0.46,0.23,0.7,0.34l0.8,0.38
					c0.72-0.89,18.89-5.16,20.04-6.6c1.16-1.45-7.29-0.31-13.33,2.23C1088.39,1169.18,1085.82,1170.5,1084.62,1170.96
					L1084.62,1170.96z M1051.64,1145.76c0,0,13.42,2.23,24.28-0.82c10.85-3.04,21.29-4.89,22.11-6.47
					c0.83-1.59-11.85-3.88-23.67-3.46c-11.82,0.43-24.04,7.75-23.04,8.07c0.99,0.31,24.47-3.54,25.87-3.32
					c1.4,0.23-12.66,3.82-17.88,4.24c-5.21,0.42-6.96,0.24-7.67,0.63C1050.95,1145.02,1051.64,1145.76,1051.64,1145.76
					L1051.64,1145.76z"/>
				<path class="st51" d="M1296.15,1138.45c-4.77,5.59-19.79,21.98-39.91,32.08c-0.36-0.41-9.69-11.09-27.44-11.62
					c-18.1-0.55-26.5-1.97-27.6-0.36c-1.1,1.6,25.08,10.24,35.4,11.62c8.19,1.1,14.55,1.94,16.61,1.83
					c-23.98,11.4-27.46,11.06-27.47,11.06c-0.5-0.03-0.93,0.35-0.96,0.84c-0.02,0.24,0.06,0.46,0.19,0.63
					c-2-0.12-27.43,4.96-28.99,4.77c-1.59-0.2,14.16-4.8,20.02-5.48c5.86-0.68,7.85-0.55,8.63-1.02c0.79-0.47-0.02-1.27-0.02-1.27
					s-15.25-1.99-27.38,1.87c-12.14,3.86-23.84,6.35-24.72,8.18c-0.87,1.83,13.53,3.91,26.86,2.98c12.58-0.89,25.32-8.74,25.75-9.88
					c0.13,0.11,0.31,0.18,0.5,0.2c0.01,0,4.07,0.39,29.72-11.88c-0.35,0.34-11.18,10.8-15.72,22.48
					c-4.62,11.87-10.02,22.55-9.15,24.37c0.87,1.82,11.54-8.08,19.17-19.04c7.63-10.96,9.3-26.97,8.34-26.28
					c-0.96,0.69-13.4,24.51-14.55,25.62c-1.15,1.11,5.15-14.03,8.3-19.03c3.15-4.99,4.49-6.46,4.62-7.35c0.12-0.85-0.88-0.79-1-0.79
					l0.1-0.05c12.02-5.76,22.34-13.82,29.93-20.79c-2.71,4.52-6.24,11.38-7.64,18.29c-2.4,11.84-5.74,22.7-4.62,24.26
					c1.11,1.56,9.49-9.41,14.85-20.89c5.37-11.47,4.35-26.71,3.56-25.92c-0.79,0.8-8.58,25.08-9.47,26.3
					c-0.9,1.23,2.55-13.94,4.69-19.13c1.82-4.39,2.83-6.19,3.08-7.17c4.12-4.1,7.02-7.45,8.4-9.11
					C1297.55,1138.67,1296.85,1138.56,1296.15,1138.45L1296.15,1138.45z M1255.38,1170.96c-0.23,0.12-0.46,0.23-0.7,0.34l-0.8,0.38
					c-0.72-0.89-18.89-5.16-20.05-6.6c-1.16-1.45,7.29-0.31,13.33,2.23C1251.61,1169.18,1254.18,1170.5,1255.38,1170.96
					L1255.38,1170.96z M1288.36,1145.76c0,0-13.42,2.23-24.28-0.82c-10.85-3.04-21.29-4.89-22.11-6.47
					c-0.83-1.59,11.85-3.88,23.67-3.46c11.82,0.43,24.04,7.75,23.04,8.07c-0.99,0.31-24.47-3.54-25.87-3.32
					c-1.4,0.22,12.67,3.81,17.88,4.24c5.21,0.42,6.96,0.24,7.67,0.63C1289.05,1145.02,1288.36,1145.76,1288.36,1145.76
					L1288.36,1145.76z"/>
			</g>
			<path class="st4" d="M1170,882.17c0.82,0.07,12.58,0.85,30.48-8.38c18.55-9.58,23.34-10.18,23.94-5.09
				c0.6,5.08-2.99,26.64,7.18,40.1c10.18,13.47,19.75,12.27,24.25,23.94c3.6,9.38,1.41,210.32,0.41,288.85
				c4.29-1.77,8.52-3.66,12.67-5.67c0.27-72.29,0.87-222.62,1.3-251.35c0.57-38.11-1.04-50.59-1.04-50.59s2.21-11.61-4.68-25.98
				c-6.88-14.36-12.57-17.95-12.57-17.95s1.2-16.76-7.18-23.64c-8.38-6.88-17.36-5.69-17.36-5.69s-4.49-8.38-12.87-10.77
				c-8.38-2.4-13.17-0.3-13.17-0.3s-3.29-7.18-12.87-8.38c-4.81-0.6-14.19-0.32-18.51,2.57c-4.33-2.88-13.71-3.17-18.52-2.57
				c-9.58,1.19-12.87,8.38-12.87,8.38s-4.79-2.1-13.17,0.3c-8.38,2.4-12.87,10.77-12.87,10.77s-8.98-1.19-17.36,5.69
				c-8.38,6.88-7.18,23.64-7.18,23.64s-5.69,3.59-12.57,17.95c-6.88,14.37-4.68,25.98-4.68,25.98s-1.61,12.48-1.04,50.59
				c0.43,28.73,1.04,179.06,1.3,251.35c4.16,2.01,8.38,3.9,12.67,5.67c-1-78.52-3.19-279.46,0.42-288.85
				c4.49-11.68,14.06-10.47,24.24-23.94s6.58-35.02,7.18-40.1c0.6-5.09,5.39-4.49,23.94,5.09
				C1157.42,883.02,1169.18,882.24,1170,882.17L1170,882.17z"/>
			<g>
				<path class="st52" d="M1069.92,1029.66h11.44c2.08,0,3.78,1.85,3.78,4.1v19.32c0,2.26-1.7,4.11-3.78,4.11h-11.44
					c-2.08,0-3.78-1.85-3.78-4.11v-19.32C1066.14,1031.51,1067.84,1029.66,1069.92,1029.66z"/>
				<path class="st8" d="M1076.05,1057.3c4.44,0,8.04,3.6,8.04,8.04c0,4.44-3.6,8.04-8.04,8.04c-4.44,0-8.04-3.6-8.04-8.04
					C1068.01,1060.91,1071.61,1057.3,1076.05,1057.3z M1076.12,1013.35c4.44,0,8.05,3.6,8.05,8.04c0,4.44-3.6,8.05-8.05,8.05
					c-4.44,0-8.04-3.6-8.04-8.05C1068.08,1016.95,1071.68,1013.35,1076.12,1013.35z"/>
			</g>
			<g>
				<path class="st52" d="M1270.37,1029.66h-11.44c-2.08,0-3.78,1.85-3.78,4.1v19.32c0,2.26,1.7,4.11,3.78,4.11h11.44
					c2.08,0,3.78-1.85,3.78-4.11v-19.32C1274.15,1031.51,1272.45,1029.66,1270.37,1029.66z"/>
				<path class="st8" d="M1264.24,1057.3c-4.44,0-8.04,3.6-8.04,8.04c0,4.44,3.6,8.04,8.04,8.04c4.44,0,8.04-3.6,8.04-8.04
					C1272.28,1060.91,1268.68,1057.3,1264.24,1057.3z M1264.16,1013.35c-4.44,0-8.04,3.6-8.04,8.04c0,4.44,3.6,8.05,8.04,8.05
					c4.44,0,8.05-3.6,8.05-8.05C1272.21,1016.95,1268.61,1013.35,1264.16,1013.35z"/>
			</g>
			<path class="st53" d="M1111.96,836.85c2.9,0,5.24,2.34,5.24,5.24c0,2.89-2.35,5.24-5.24,5.24c-2.89,0-5.24-2.35-5.24-5.24
				C1106.72,839.19,1109.07,836.85,1111.96,836.85z M1228.04,836.85c-2.9,0-5.24,2.34-5.24,5.24c0,2.89,2.35,5.24,5.24,5.24
				c2.89,0,5.24-2.35,5.24-5.24C1233.28,839.19,1230.93,836.85,1228.04,836.85z M1220.15,850.24c-2.21,0-4.01,1.79-4.01,4
				s1.79,4.01,4.01,4.01c2.21,0,4-1.79,4-4.01S1222.36,850.24,1220.15,850.24z M1119.85,850.24c2.21,0,4.01,1.79,4.01,4
				s-1.79,4.01-4.01,4.01c-2.21,0-4-1.79-4-4.01S1117.64,850.24,1119.85,850.24z"/>
		</g>
	</g>
</g>
</svg>
